<svg width="159" height="27" viewBox="0 0 159 27" fill="none" xmlns="http://www.w3.org/2000/svg">
<path d="M0 25.8047V0.351562H16.7695V4.71094H5.27344V10.8984H15.6797V15.2578H5.27344V25.8047H0ZM20.25 25.8047V0.351562H37.3359V4.71094H25.5234V10.8984H36.457V15.2578H25.5234V21.4453H37.3711V25.8047H20.25ZM55.2656 7.62891C55.0547 5.625 53.4375 4.42969 50.8711 4.42969C48.1992 4.42969 46.7227 5.66016 46.6875 7.34766C46.6523 9.17578 48.5859 10.0195 50.7656 10.5117L53.0508 11.0742C57.4102 12.0586 60.6797 14.2734 60.6797 18.5273C60.6797 23.2031 57.0234 26.1562 50.8359 26.1562C44.6836 26.1562 40.7461 23.3086 40.6055 17.8594H45.7383C45.9141 20.4258 47.9531 21.7266 50.7656 21.7266C53.543 21.7266 55.3359 20.4258 55.3359 18.5273C55.3359 16.8047 53.7539 15.9961 50.9766 15.293L48.1992 14.625C43.9102 13.5703 41.2734 11.4258 41.2734 7.69922C41.2734 3.05859 45.3516 0 50.9062 0C56.5312 0 60.2578 3.12891 60.3281 7.62891H55.2656ZM63.1406 4.71094V0.351562H83.9883V4.71094H76.1836V25.8047H70.9453V4.71094H63.1406ZM88.3828 25.8047H82.6875L91.5117 0.351562H98.2969L107.086 25.8047H101.426L99.5273 19.9336H90.3164L88.3828 25.8047ZM91.6523 15.8203H98.1914L94.9922 6.08203H94.8164L91.6523 15.8203ZM125.684 8.54297C124.98 6.15234 123.047 4.67578 120.27 4.67578C116.332 4.67578 113.66 7.69922 113.66 13.043C113.66 18.4219 116.262 21.4805 120.305 21.4805C123.943 21.4805 126.105 19.4238 126.176 16.207H120.656V12.2344H131.273V15.3984C131.273 22.0781 126.703 26.1562 120.27 26.1562C113.133 26.1562 108.281 21.1641 108.281 13.1133C108.281 4.85156 113.449 0 120.164 0C125.895 0 130.324 3.51562 131.027 8.54297H125.684ZM158.449 13.0781C158.449 21.375 153.281 26.1562 146.566 26.1562C139.781 26.1562 134.648 21.3398 134.648 13.0781C134.648 4.78125 139.781 0 146.566 0C153.281 0 158.449 4.78125 158.449 13.0781ZM153.07 13.0781C153.07 7.62891 150.504 4.67578 146.566 4.67578C142.629 4.67578 140.027 7.62891 140.027 13.0781C140.027 18.5273 142.629 21.4805 146.566 21.4805C150.504 21.4805 153.07 18.5273 153.07 13.0781Z" fill="black"/>
</svg>
