<svg width="168" height="97" viewBox="0 0 168 97" fill="none" xmlns="http://www.w3.org/2000/svg">
<path d="M0 32.3414L144.404 0L167.194 13.0953L22.997 48.016L0 32.3414Z" fill="black"/>
<path d="M22.997 96.2304L167.021 62.3018L167.021 12.8968L24.2401 46.8255L22.997 96.2304Z" fill="black"/>
<path d="M0.835874 81.129L23.4617 96.3801L26.3622 49.7047L0.585139 32.4669L0.835874 81.129Z" fill="black"/>
<path d="M37.8086 76.0629L38.1294 57.6829L50.623 54.7985L50.5548 58.708L42.7617 60.5072L42.7037 63.8329L49.705 62.2165L49.6368 66.126L42.6354 67.7424L42.5091 74.9777L37.8086 76.0629Z" fill="white"/>
<path d="M52.1824 72.7444L52.5032 54.3644L65.2937 51.4115L65.2255 55.321L57.1356 57.1887L57.0775 60.5144L64.4995 58.8009L64.4312 62.7105L57.0093 64.424L56.9512 67.7496L65.0164 65.8876L64.9482 69.7972L52.1824 72.7444Z" fill="white"/>
<path d="M77.317 54.2994C77.2398 53.0783 76.4605 52.5502 74.8524 52.9215C73.2938 53.2813 72.5905 54.0505 72.5506 54.9194C72.5095 55.8644 73.3414 56.2033 74.9927 56.1761L76.4709 56.1888C80.3157 56.1355 81.9891 57.6708 81.9646 60.483C81.877 64.0937 79.1449 66.7472 74.6175 67.7924C69.9911 68.8605 67.0339 67.4699 67.0633 62.9625L71.566 61.9229C71.6105 63.6067 72.7573 64.2522 74.6128 63.8238C76.2209 63.4526 77.0988 62.5672 77.1404 61.5968C77.1311 60.714 76.4225 60.3719 74.4266 60.3776L72.6277 60.3883C69.4981 60.4029 67.5963 59.249 67.646 56.4057C67.6819 52.9334 70.7162 49.9067 74.922 48.9358C79.2267 47.9419 81.8822 49.6803 81.8444 53.2542L77.317 54.2994Z" fill="white"/>
<path d="M83.533 51.0944L83.6012 47.1848L99.0389 43.6208L98.9707 47.5303L93.5774 48.7755L93.3248 63.2459L88.6737 64.3197L88.9263 49.8493L83.533 51.0944Z" fill="white"/>
<path d="M102.775 61.0641L97.679 62.2407L103.962 42.4842L110.37 41.0048L115.987 58.0141L110.915 59.1849L109.914 55.8256L103.902 57.2136L102.775 61.0641ZM105.055 53.3066L108.889 52.4212L107.141 46.6806L106.993 46.7149L105.055 53.3066Z" fill="white"/>
<path d="M128.794 42.7689C128.496 41.523 127.445 41.007 125.862 41.3726C123.363 41.9494 121.87 44.2158 121.813 47.4907C121.755 50.791 123.082 52.4316 125.655 51.8376C127.894 51.3207 129.051 49.979 129.118 48.2569L125.802 49.0222L125.863 45.5696L133.73 43.7533L133.686 46.2666C133.599 51.2678 130.208 54.9837 125.532 56.0632C120.336 57.2627 116.861 54.4745 116.963 48.661C117.068 42.6189 121.012 38.295 125.837 37.1812C130.042 36.2102 133.238 38.0768 133.569 41.6665L128.794 42.7689Z" fill="white"/>
<path d="M153.281 40.2509C153.175 46.3691 149.307 50.5743 144.458 51.6938C139.559 52.8247 135.832 50.3476 135.939 44.2547C136.046 38.1365 139.889 33.937 144.787 32.8061C149.636 31.6866 153.388 34.1327 153.281 40.2509ZM148.432 41.3704C148.491 37.9939 147.163 36.4548 144.714 37.0203C142.24 37.5914 140.847 39.7588 140.788 43.1353C140.729 46.5117 142.057 48.0508 144.531 47.4796C146.98 46.9142 148.374 44.7468 148.432 41.3704Z" fill="white"/>
</svg>
