<svg width="35" height="35" viewBox="0 0 35 35" fill="none" xmlns="http://www.w3.org/2000/svg">
<g clip-path="url(#clip0_235_2429)">
<path d="M17.5004 35.0008C27.1656 35.0008 35.0008 27.1656 35.0008 17.5004C35.0008 7.8352 27.1656 0 17.5004 0C7.8352 0 0 7.8352 0 17.5004C0 27.1656 7.8352 35.0008 17.5004 35.0008Z" fill="white"/>
<path d="M9.81951 10.908L19.9648 5.20627C20.0414 5.16333 20.1278 5.1412 20.2156 5.14205C20.3034 5.14291 20.3894 5.16674 20.4651 5.21116L24.947 7.85789C25.0224 7.90246 25.0849 7.96605 25.128 8.04232C25.1712 8.11859 25.1935 8.20485 25.1929 8.29247C25.1922 8.3801 25.1685 8.46601 25.1242 8.54162C25.08 8.61723 25.0166 8.67988 24.9405 8.7233L10.3133 17.0848C10.2373 17.1283 10.1512 17.1511 10.0636 17.1509C9.97595 17.1507 9.88994 17.1275 9.81412 17.0836C9.7383 17.0397 9.67534 16.9767 9.63152 16.9008C9.58771 16.8249 9.56458 16.7389 9.56445 16.6513V11.344C9.56456 11.2552 9.58823 11.1681 9.63304 11.0915C9.67786 11.0149 9.7422 10.9516 9.81951 10.908Z" fill="black"/>
<path d="M9.8187 19.0601L18.3513 14.24C18.4278 14.1967 18.5143 14.1743 18.6022 14.1752C18.69 14.1761 18.7761 14.2001 18.8517 14.2449L23.3335 16.8917C23.4088 16.9362 23.4711 16.9997 23.5142 17.0759C23.5573 17.152 23.5797 17.2381 23.5791 17.3256C23.5785 17.4131 23.555 17.4989 23.5109 17.5745C23.4668 17.65 23.4037 17.7127 23.3278 17.7563L10.3141 25.2344C10.2381 25.2781 10.1519 25.3011 10.0641 25.301C9.97642 25.3009 9.89027 25.2777 9.81433 25.2338C9.73838 25.1899 9.67532 25.1268 9.63146 25.0508C9.58761 24.9748 9.5645 24.8886 9.56445 24.8009V19.4952C9.56454 19.4067 9.58812 19.3197 9.63279 19.2433C9.67745 19.1668 9.74161 19.1036 9.8187 19.0601Z" fill="black"/>
<path d="M10.9751 26.5203L14.9306 24.2549C15.0067 24.2113 15.0931 24.1884 15.1808 24.1887C15.2686 24.189 15.3548 24.2125 15.4306 24.2567C15.5065 24.3009 15.5694 24.3643 15.6129 24.4405C15.6564 24.5168 15.6791 24.6031 15.6786 24.6909V29.185C15.6786 29.2723 15.6557 29.3581 15.6123 29.4339C15.5688 29.5096 15.5062 29.5727 15.4308 29.6168C15.3555 29.6609 15.2698 29.6844 15.1825 29.6852C15.0952 29.6859 15.0091 29.6638 14.933 29.6209L10.9784 27.3914C10.9011 27.3481 10.8367 27.2851 10.7918 27.2087C10.7468 27.1323 10.723 27.0454 10.7227 26.9568C10.7223 26.8682 10.7455 26.7811 10.7899 26.7044C10.8342 26.6277 10.8982 26.5642 10.9751 26.5203Z" fill="black"/>
</g>
<defs>
<clipPath id="clip0_235_2429">
<rect width="35" height="35" fill="white"/>
</clipPath>
</defs>
</svg>
